<svg width="36" height="36" viewBox="0 0 36 36" fill="none" xmlns="http://www.w3.org/2000/svg">
<rect width="36" height="36" rx="18" fill="#F6F7FA"/>
<path d="M26.2333 17.6419C25.1833 15.9836 22.3333 12.3086 18.1167 12.3086C18.075 12.3086 17.9333 12.3086 17.8917 12.3086C13.675 12.3086 10.825 15.9836 9.77501 17.6419C9.46668 18.1253 9.47501 18.7253 9.77501 19.2086C10.8333 20.8503 13.675 24.5669 17.8917 24.5669C17.9333 24.5669 18.075 24.5669 18.1167 24.5669C22.3333 24.5669 25.1833 20.8586 26.2333 19.2086C26.5333 18.7336 26.5333 18.1253 26.2333 17.6419Z" fill="#1C1D1F"/>
<path d="M17.9999 22.1668C20.0572 22.1668 21.7249 20.4991 21.7249 18.4418C21.7249 16.3845 20.0572 14.7168 17.9999 14.7168C15.9426 14.7168 14.2749 16.3845 14.2749 18.4418C14.2749 20.4991 15.9426 22.1668 17.9999 22.1668Z" fill="white"/>
<path d="M18.1947 16.0301C19.4723 16.109 20.4834 17.1696 20.4834 18.4671C20.4834 19.8159 19.3906 20.9087 18.0418 20.9087C16.7927 20.9087 15.7632 19.9717 15.6177 18.7619C15.7966 18.8135 15.9862 18.8421 16.1834 18.8421C17.3596 18.8421 18.3084 17.8932 18.3084 16.7171C18.3084 16.475 18.2684 16.2444 18.1947 16.0301Z" fill="#BCC5D6" stroke="#BCC5D6"/>
</svg>
